<?xml version="1.0" encoding="UTF-8" standalone="no"?>
<svg
   xmlns:dc="http://purl.org/dc/elements/1.1/"
   xmlns:cc="http://creativecommons.org/ns#"
   xmlns:rdf="http://www.w3.org/1999/02/22-rdf-syntax-ns#"
   xmlns:svg="http://www.w3.org/2000/svg"
   xmlns="http://www.w3.org/2000/svg"
   xmlns:sodipodi="http://sodipodi.sourceforge.net/DTD/sodipodi-0.dtd"
   xmlns:inkscape="http://www.inkscape.org/namespaces/inkscape"
   viewBox="-200 0 450 100"
   style="background-color:#ffffff00"
   version="1.1"
   xml:space="preserve"
   x="0px"
   y="0px"
   width="450px"
   height="100px"
   id="svg2"
   inkscape:version="0.91 r13725"
   sodipodi:docname="kozak-ATG.svg"><metadata
     id="metadata14"><rdf:RDF><cc:Work
         rdf:about=""><dc:format>image/svg+xml</dc:format><dc:type
           rdf:resource="http://purl.org/dc/dcmitype/StillImage" /></cc:Work></rdf:RDF></metadata><sodipodi:namedview
     pagecolor="#ffffff"
     bordercolor="#666666"
     borderopacity="1"
     objecttolerance="10"
     gridtolerance="10"
     guidetolerance="10"
     inkscape:pageopacity="0"
     inkscape:pageshadow="2"
     inkscape:window-width="1434"
     inkscape:window-height="814"
     id="namedview12"
     showgrid="false"
     inkscape:zoom="5.6711111"
     inkscape:cx="218.61293"
     inkscape:cy="48.831868"
     inkscape:window-x="81"
     inkscape:window-y="24"
     inkscape:window-maximized="0"
     inkscape:current-layer="svg2" /><defs
     id="defs4"><style
       type="text/css"
       id="style6"><![CDATA[
      path,circle,polygon {
        stroke:#000000;
        stroke-width: 3;
        stroke-linecap: round;
        stroke-linejoin: round;
        fill: none
      }]]></style></defs><path
     d="M -200 50 L 250 50"
     id="path8" /><path
     d="m 4.7389577,43.265604 0,13.468792 36.9954383,0 8.992947,-6.989098 -8.992947,-6.479694 z"
     id="path10"
     inkscape:connector-curvature="0"
     style="fill:#e7f699;stroke:#000000;stroke-width:2.478;stroke-linecap:round;stroke-linejoin:round;stroke-miterlimit:4;stroke-dasharray:none;fill-opacity:1"
     sodipodi:nodetypes="cccccc" /><g
     style="font-style:normal;font-weight:normal;font-size:40px;line-height:125%;font-family:sans-serif;letter-spacing:0px;word-spacing:0px;fill:#000000;fill-opacity:1;stroke:none;stroke-width:1px;stroke-linecap:butt;stroke-linejoin:miter;stroke-opacity:1"
     id="text4142"
     transform="matrix(0.83345522,0,0,0.83345522,24.848284,10.910512)"><g
       id="g4153"
       transform="matrix(0.82202486,0,0,0.82202486,0.76715881,1.8607386)"><path
         inkscape:connector-curvature="0"
         id="path4147"
         style="font-style:normal;font-variant:normal;font-weight:normal;font-stretch:normal;font-family:Inconsolata;-inkscape-font-specification:Inconsolata;fill:#000000;fill-opacity:1;stroke:none;stroke-width:3;stroke-linecap:round;stroke-linejoin:round"
         d="m -13.535671,35.815048 -2.52,-7.28 -8.04,0 -2.52,7.28 -2.76,0 9.2,-25.36 0.32,0 9.2,25.36 -2.88,0 z m -9.8,-9.44 6.56,0 -3.28,-9.52 -3.28,9.52 z" /><path
         inkscape:connector-curvature="0"
         id="path4149"
         style="font-style:normal;font-variant:normal;font-weight:normal;font-stretch:normal;font-family:Inconsolata;-inkscape-font-specification:Inconsolata;fill:#000000;fill-opacity:1;stroke:none;stroke-width:3;stroke-linecap:round;stroke-linejoin:round"
         d="m -1.6956708,35.815048 0,-22.44 -7.08,0 0,-2.52 17.28,0 0,2.52 -7.36,0 0,22.44 -2.84,0 z" /><path
         inkscape:connector-curvature="0"
         id="path4151"
         style="font-style:normal;font-variant:normal;font-weight:normal;font-stretch:normal;font-family:Inconsolata;-inkscape-font-specification:Inconsolata;fill:#000000;fill-opacity:1;stroke:none;stroke-width:3;stroke-linecap:round;stroke-linejoin:round"
         d="m 28.384329,23.855048 0,9.76 q -3.56,2.6 -7.32,2.6 -2.96,0 -5.16,-1.56 -2.16,-1.56 -3.32,-4.4 -1.16,-2.84 -1.16,-6.6 -0.04,-4.96 1.44,-7.84 1.48,-2.92 3.64,-4.04 2.16,-1.16 4.36,-1.16 2.24,0 4.32,1.16 2.08,1.16 3.12,3.04 l -1.96,1.56 -0.04,0.04 q -1.36,-1.8 -2.52,-2.56 -1.16,-0.76 -2.88,-0.76 -3,0 -4.88,2.32 -1.84,2.32 -1.84,7.64 0,5.12 1.8,7.92 1.84,2.76 5.08,2.76 1.2,0 2.52,-0.36 1.32,-0.4 2.2,-1.16 l 0,-5.92 -4.52,0 0,-2.44 7.12,0 z m -2.52,-7.44 q 0,-0.24 0.36,0.04 l -0.2,0.2 -0.16,-0.24 z m 0.44,0 q 0.2,0.28 -0.08,0.04 l 0.08,-0.04 z" /></g></g></svg>